<svg version="1.1" class="Layer_1" xmlns="http://www.w3.org/2000/svg" xmlns:xlink="http://www.w3.org/1999/xlink" x="0px" y="0px" width="135px" height="24px" viewBox="0 0 220 24" style="enable-background:new 0 0 220 23.4;" xml:space="preserve"><path class="st0" d="M24.9,22.1c-0.2,0.1-0.5,0.2-0.7,0.3c-0.2,0.1-0.4,0.1-0.7,0.1c-0.9-0.7-1.4-1.9-1.5-3.7s0.3-3.9,1.1-6.6	c0.1-0.1,0.2-0.2,0.2-0.4L23,11.4c-0.1,0-0.2,0-0.3,0c-0.1,0-0.2,0.1-0.2,0.3c-0.6,0.5-1.3,0.9-2.1,1.4c-0.7,0.5-1.5,1-2.3,1.4	c-0.8,0.4-1.6,0.8-2.5,1C14.8,15.8,14,16,13.2,16c-2,0-3.5-1-4.6-3.1l-0.3-0.5l-0.3,0.5c-0.1,0.1-0.2,0.3-0.3,0.6	c-0.1,0.3-0.3,0.6-0.4,1c-0.1,0.4-0.3,0.8-0.4,1.2c-0.1,0.4-0.2,0.7-0.1,1c-0.2,0.2-0.4,0.5-0.7,0.8c-0.2,0.3-0.4,0.6-0.5,1	c0,0.2,0,0.4,0.1,0.5c0,0.2-0.2,0.4-0.3,0.5c-0.1,0.1-0.2,0.2-0.3,0.3c-0.1,0.1-0.2,0.2-0.3,0.3c0,0.1-0.1,0.2-0.1,0.4	c0,0.1,0,0.2-0.1,0.4c0,0.2,0,0.3-0.1,0.5c-0.4,0.8-0.7,1.4-1,1.6c-0.2,0.3-0.6,0.4-1,0.4c-0.2,0-0.5,0-0.9-0.1	c-0.3-0.3-0.6-0.8-0.9-1.4c-0.3-0.6-0.4-1.2-0.6-1.9C0,19.3,0,18.6,0,17.9c0-0.7,0.1-1.3,0.3-1.8c0,0,0.1-0.3,0.3-0.7	c0.2-0.5,0.4-1,0.7-1.8c0.3-0.7,0.6-1.5,1-2.4c0.4-0.9,0.8-1.7,1.2-2.6C4,7.8,4.3,7,4.7,6.3C5,5.6,5.3,5.1,5.6,4.7	c0.2-0.3,0.4-0.6,0.5-0.8c0.2-0.3,0.3-0.5,0.5-0.7C7,2.4,7.4,1.8,7.8,1.3c0.4-0.5,1-0.9,1.8-1.2c0.5,0.2,0.9,0.5,1.2,0.8l0.1,0.4	c0.1,0.2,0.2,0.4,0.4,0.4c0.3,0.1,0.5,0.1,0.7,0.2C12.1,1.9,12.3,2,12.5,2c0.2,0.2,0.3,0.4,0.5,0.7c0.2,0.3,0.4,0.6,0.6,0.9	c0.2,0.3,0.3,0.6,0.4,0.8c0.1,0.3,0.2,0.6,0.2,0.9c0,0.3,0,0.6-0.2,0.9l0,0.4c0.1,0.2,0.1,0.5,0.1,0.9c0,0.2,0,0.3,0,0.5	s0,0.4,0.1,0.6c0.4,0.3,0.8,0.5,1.2,0.5c0.4,0,0.7-0.1,1.1-0.3c0.3-0.2,0.6-0.4,0.9-0.6c0.2-0.1,0.4-0.3,0.6-0.4	c0.2-0.1,0.4-0.2,0.6-0.2c0.4-0.4,0.8-0.8,1.2-1.1c0.4-0.3,0.7-0.6,1.1-0.9c0.7-0.6,1.4-1.2,2.1-1.9c0.7-0.7,1.2-1.5,1.6-2.5	C24.7,1,24.9,1,25.2,1C25.5,1,25.7,1,26,1.2c0.3,0.1,0.6,0.2,0.8,0.4c0.1,0,0.1,0.1,0.2,0.1c0.1,0,0.1,0,0.2,0.1	c0,0.2,0.1,0.4,0.3,0.6c0.1,0.1,0.2,0.1,0.2,0.1c0,0,0.1,0,0.1,0.1c0.4,0.2,0.6,0.4,0.7,0.6c0.2,0.6,0.5,1,0.9,1.3	c0,0.2,0,0.5,0,0.7c0.1,0.2,0.1,0.4,0.2,0.6c0,0.1,0,0.1,0.1,0.2c0,0.1,0.1,0.2,0.1,0.3l-0.7-0.1l0.1,0.7c0,0.3,0,0.7-0.1,1.1	c-0.1,0.4-0.2,0.7-0.4,1c0,0.6,0,1.1,0.1,1.5c0,0.4,0,0.7-0.1,1c0,0.3-0.1,0.6-0.2,0.9c-0.1,0.3-0.2,0.6-0.3,0.9	c0.1,1.5-0.1,3-0.5,4.2c-0.4,1.3-0.9,2.5-1.4,3.6c0,0.1-0.1,0.2-0.2,0.4c-0.1,0.1-0.1,0.2-0.2,0.4c-0.2,0.1-0.4,0.2-0.6,0.2	C25.2,21.9,25.1,22,24.9,22.1z M51,2.3c0,0.2,0,0.3,0,0.4s0,0.2,0,0.2c0,0.1,0,0.2,0,0.2c0,0.1,0,0.2,0.1,0.4	c-0.5,0.8-1.1,1.4-1.8,1.7c-0.7,0.3-1.4,0.5-2.2,0.7c-0.8,0.1-1.6,0.3-2.4,0.4c-0.8,0.1-1.6,0.5-2.4,0.9c-0.3-0.1-0.6-0.1-0.9,0	c-0.3,0.1-0.6,0.2-1.1,0.1c-0.1,0.1-0.3,0.2-0.5,0.3c-0.2,0.1-0.4,0.1-0.7,0.2c0.1,0.2,0.1,0.4,0.1,0.7c0,0.2,0,0.4,0.1,0.6	c0.8,0.1,1.8,0.1,2.8,0c1-0.1,2-0.2,3-0.2c0,0.1,0,0.2,0,0.2c0,0-0.1,0.1,0,0.2c0.2,0.1,0.3,0.3,0.5,0.5c0.2,0.2,0.3,0.4,0.5,0.5	c0.2,0.2,0.3,0.3,0.5,0.4c0.2,0.1,0.4,0.2,0.6,0.1c0.1,0.2,0.2,0.4,0.2,0.6c0,0.2,0,0.5-0.1,0.7c-0.4,0.3-0.8,0.5-1.2,0.8	c-0.4,0.3-0.8,0.5-1.2,0.7c-0.4,0.2-0.9,0.4-1.3,0.5s-1,0.2-1.6,0.2c-0.1,0-0.2,0-0.3,0s-0.1,0-0.2-0.1c-0.2,0.1-0.5,0.2-0.8,0.1	c-0.4,0-0.6,0-0.8,0.1c-0.3-0.1-0.6-0.2-1-0.2c-0.4,0-0.7,0-1-0.1c-0.4,0.5-0.7,1.1-1.1,1.6c-0.3,0.6-0.6,1.2-0.8,1.8	c0.8,0.1,1.5,0.2,2,0.1c0.5,0,1.1-0.1,1.5-0.1c0.5-0.1,1-0.1,1.5-0.2c0.5-0.1,1.1-0.1,1.9-0.1c0.5-0.3,1.1-0.4,1.7-0.5	c0.7-0.1,1.3-0.2,1.8-0.4c0.2,0.1,0.4,0.2,0.5,0.4c0.1,0.2,0.3,0.4,0.4,0.5c0.1,0.2,0.3,0.3,0.4,0.4c0.1,0.1,0.3,0.2,0.5,0.1	c0.1,0.1,0.2,0.2,0.2,0.3c0,0.1,0.1,0.3,0.1,0.4c0,0.1,0.1,0.2,0.1,0.3c0.1,0.1,0.2,0.1,0.3,0.1c-0.4,0.8-0.8,1.4-1.2,1.8	c-0.5,0.4-1,0.7-1.6,1c-0.6,0.2-1.3,0.4-2,0.5c-0.7,0.1-1.6,0.3-2.4,0.4c-0.2,0-0.4,0-0.5,0c-0.1-0.1-0.3-0.1-0.5-0.1	c-0.6,0.1-1.2,0.2-2,0.3c-0.8,0.1-1.6,0.1-2.4,0.1c-0.8,0-1.6-0.1-2.3-0.3s-1.3-0.5-1.8-1c-0.2-0.2-0.3-0.4-0.4-0.6	c-0.1-0.2-0.2-0.4-0.5-0.5c0-0.3-0.1-0.7-0.1-1.1c-0.1-0.4-0.1-0.8-0.2-1.2c-0.1-0.4-0.1-0.8-0.2-1.2s0-0.8,0.1-1.1	c0.1-0.4,0.2-0.7,0.5-1c0.2-0.3,0.3-0.6,0.2-0.9c0.1,0,0.2-0.1,0.2-0.2c0-0.1,0.1-0.2,0.3-0.1c0.1-0.4,0.3-0.8,0.5-1.2	c0.2-0.4,0.3-0.8,0.5-1.1c0.2-0.4,0.4-0.7,0.5-1.1c0.2-0.4,0.4-0.8,0.5-1.2c-0.3-0.3-0.6-0.7-0.7-1c-0.2-0.4-0.3-0.7-0.3-1.1	s-0.1-0.8-0.2-1.2c0-0.4-0.1-0.8-0.3-1.2c0.2-0.4,0.5-0.7,0.9-0.9c0.3-0.2,0.7-0.4,1.1-0.6c0.4-0.1,0.9-0.3,1.3-0.4	c0.5-0.1,1-0.2,1.5-0.3c1-0.3,1.8-0.6,2.6-0.7c0.8-0.2,1.5-0.3,2.2-0.4c0.7-0.1,1.5-0.2,2.3-0.3s1.7-0.2,2.7-0.4	C47.9,0.9,48.1,1,48.3,1c0.1-0.2,0.2-0.3,0.3-0.2s0.2,0,0.2-0.2c0.2,0.4,0.5,0.8,0.9,1C50.1,1.9,50.5,2.1,51,2.3z M75.9,22.1	c-0.2,0.1-0.5,0.2-0.7,0.3c-0.2,0.1-0.4,0.1-0.7,0.1c-0.9-0.7-1.4-1.9-1.5-3.7s0.3-3.9,1.1-6.6c0.1-0.1,0.2-0.2,0.2-0.4L74,11.4	c-0.1,0-0.2,0-0.3,0c-0.1,0-0.2,0.1-0.2,0.3c-0.6,0.5-1.3,0.9-2.1,1.4c-0.7,0.5-1.5,1-2.3,1.4c-0.8,0.4-1.6,0.8-2.5,1	C65.9,15.8,65,16,64.2,16c-2,0-3.5-1-4.6-3.1l-0.3-0.5l-0.3,0.5c-0.1,0.1-0.2,0.3-0.3,0.6c-0.1,0.3-0.3,0.6-0.4,1	c-0.1,0.4-0.3,0.8-0.4,1.2c-0.1,0.4-0.2,0.7-0.1,1c-0.2,0.2-0.4,0.5-0.7,0.8c-0.2,0.3-0.4,0.6-0.5,1c0,0.2,0,0.4,0.1,0.5	c0,0.2-0.2,0.4-0.3,0.5c-0.1,0.1-0.2,0.2-0.3,0.3c-0.1,0.1-0.2,0.2-0.3,0.3c0,0.1-0.1,0.2-0.1,0.4c0,0.1,0,0.2-0.1,0.4	c0,0.2,0,0.3-0.1,0.5c-0.4,0.8-0.7,1.4-1,1.6c-0.2,0.3-0.6,0.4-1,0.4c-0.2,0-0.5,0-0.9-0.1c-0.3-0.3-0.6-0.8-0.9-1.4	c-0.3-0.6-0.4-1.2-0.6-1.9c-0.1-0.7-0.2-1.4-0.2-2c0-0.7,0.1-1.3,0.3-1.8c0,0,0.1-0.3,0.3-0.7c0.2-0.5,0.4-1,0.7-1.8	c0.3-0.7,0.6-1.5,1-2.4c0.4-0.9,0.8-1.7,1.2-2.6C55,7.8,55.4,7,55.7,6.3c0.4-0.7,0.6-1.2,0.9-1.6c0.2-0.3,0.4-0.6,0.5-0.8	c0.2-0.3,0.3-0.5,0.5-0.7c0.4-0.7,0.9-1.4,1.2-1.9c0.4-0.5,1-0.9,1.8-1.2c0.5,0.2,0.9,0.5,1.2,0.8l0.1,0.4c0.1,0.2,0.2,0.4,0.4,0.4	c0.3,0.1,0.5,0.1,0.7,0.2C63.1,1.9,63.3,2,63.5,2c0.2,0.2,0.3,0.4,0.5,0.7c0.2,0.3,0.4,0.6,0.6,0.9c0.2,0.3,0.3,0.6,0.4,0.8	c0.1,0.3,0.2,0.6,0.2,0.9c0,0.3,0,0.6-0.2,0.9l0,0.4c0.1,0.2,0.1,0.5,0.1,0.9c0,0.2,0,0.3,0,0.5s0,0.4,0.1,0.6	c0.4,0.3,0.8,0.5,1.2,0.5c0.4,0,0.7-0.1,1.1-0.3c0.3-0.2,0.6-0.4,0.9-0.6c0.2-0.1,0.4-0.3,0.6-0.4c0.2-0.1,0.4-0.2,0.6-0.2	c0.4-0.4,0.8-0.8,1.2-1.1c0.4-0.3,0.7-0.6,1.1-0.9c0.7-0.6,1.4-1.2,2.1-1.9c0.7-0.7,1.2-1.5,1.6-2.5C75.7,1,76,1,76.2,1	c0.3,0,0.5,0.1,0.8,0.2c0.3,0.1,0.6,0.2,0.8,0.4c0.1,0,0.1,0.1,0.2,0.1c0.1,0,0.1,0,0.2,0.1c0,0.2,0.1,0.4,0.3,0.6	c0.1,0.1,0.2,0.1,0.2,0.1c0,0,0.1,0,0.1,0.1c0.4,0.2,0.6,0.4,0.7,0.6c0.2,0.6,0.5,1,0.9,1.3c0,0.2,0,0.5,0,0.7	c0.1,0.2,0.1,0.4,0.2,0.6c0,0.1,0,0.1,0.1,0.2c0,0.1,0.1,0.2,0.1,0.3l-0.7-0.1l0.1,0.7c0,0.3,0,0.7-0.1,1.1c-0.1,0.4-0.2,0.7-0.4,1	c0,0.6,0,1.1,0.1,1.5c0,0.4,0,0.7-0.1,1c0,0.3-0.1,0.6-0.2,0.9c-0.1,0.3-0.2,0.6-0.3,0.9c0.1,1.5-0.1,3-0.5,4.2	c-0.4,1.3-0.9,2.5-1.4,3.6c0,0.1-0.1,0.2-0.2,0.4c-0.1,0.1-0.1,0.2-0.2,0.4c-0.2,0.1-0.4,0.2-0.6,0.2C76.3,21.9,76.1,22,75.9,22.1z	 M103.2,16.8c0.1,0.1,0.2,0.2,0.3,0.4c0,0.2,0,0.3,0,0.4c-0.4,0.6-0.7,0.9-0.9,1.2c-0.2,0.2-0.3,0.4-0.4,0.5	c-0.1,0.1-0.2,0.2-0.2,0.3c-0.1,0.1-0.3,0.2-0.6,0.5c-1.1,0.7-2.2,1.2-3.4,1.7s-2.3,0.9-3.6,1.1c-0.2,0.3-0.6,0.5-1.1,0.6	c-0.5,0.1-1,0.2-1.5,0.3c-0.1,0-0.2-0.1-0.2-0.2c0-0.1-0.1-0.2-0.2-0.2c0,0.2-0.1,0.4-0.3,0.4c-0.2,0-0.4,0-0.7-0.1	c-0.3-0.1-0.6-0.3-0.9-0.4c-0.3-0.2-0.6-0.3-0.8-0.5c-0.1,0.2-0.2,0.4-0.4,0.6c-0.1,0.2-0.3,0.3-0.5,0.4c-0.3,0-0.5-0.1-0.6-0.1	c-0.1,0-0.3,0-0.4,0.1c-0.1-0.1-0.3-0.2-0.3-0.3c-0.1-0.1-0.2-0.2-0.3-0.3c-0.1-0.1-0.2-0.2-0.3-0.2c-0.1-0.1-0.3-0.1-0.5-0.2	c0-0.1,0-0.2-0.1-0.5c-0.1-0.2-0.2-0.3-0.4-0.4c0.1-0.2,0.1-0.4-0.1-0.6c-0.2-0.3-0.3-0.5-0.4-0.9c0-0.3,0.1-0.6,0.1-0.9	c0-0.3,0.2-0.5,0.4-0.5c0-0.2-0.1-0.3-0.1-0.4c0-0.1-0.1-0.2-0.1-0.4c0.2-0.1,0.3-0.3,0.4-0.5c0.1-0.2,0.1-0.4,0.2-0.6	c0-0.2,0.1-0.4,0.2-0.7c0.1-0.2,0.2-0.4,0.4-0.5c0.2-0.7,0.4-1.3,0.5-1.6c0.1-0.3,0.2-0.7,0.3-1c0.1-0.3,0.1-0.7,0.2-1.1	c0.1-0.4,0.2-0.9,0.5-1.4c0-0.4,0-0.7,0.1-1c0.1-0.3,0.2-0.6,0.3-0.8c0.1-0.3,0.2-0.6,0.3-0.9c0.1-0.3,0.1-0.7,0-1.1	c-0.3,0-0.6,0.1-0.7,0.3C87.2,7.4,87.1,7.6,87,8c-0.2,0.2-0.4,0.3-0.7,0.3c-0.3,0-0.5,0-0.7,0.1C84.7,8,84,7.5,83.5,6.9	c-0.6-0.6-1-1.4-1.3-2.2c0.2-0.6,0.5-1,1-1.4c0.4-0.4,0.9-0.7,1.5-0.9c0.6-0.3,1.1-0.5,1.8-0.6c0.6-0.2,1.2-0.3,1.8-0.5	c0.9-0.2,1.9-0.4,2.8-0.6c0.9-0.2,2-0.3,3-0.2c0.1-0.1,0.3-0.1,0.5-0.1c0.2,0,0.4,0,0.6,0c0.2,0,0.4,0,0.6,0c0.2,0,0.4-0.1,0.5-0.1	c0.1,0.1,0.3,0.2,0.5,0.3c0.2,0,0.5,0.2,0.7,0.3c0.3-0.2,0.5-0.3,0.7-0.1C98.6,0.8,98.8,0.9,99,1c0.2,0.1,0.3,0.3,0.5,0.4	c0.2,0.1,0.3,0.2,0.5,0.2c0.2,0.2,0.4,0.4,0.6,0.6c0.3,0.2,0.5,0.4,0.7,0.6c0.2,0.2,0.4,0.4,0.6,0.7s0.2,0.5,0.2,0.8	c0,0.1,0,0.2,0.1,0.2c0.1,0,0.2,0.1,0.2,0.1c0,0.7-0.1,1.4-0.3,1.9c-0.3,0.5-0.6,1-0.9,1.5c-0.4,0.5-0.8,0.9-1.2,1.3	c-0.4,0.4-0.9,0.8-1.2,1.3c0.2,0.3,0.5,0.6,0.8,0.8c0.3,0.2,0.6,0.5,1,0.7c0.3,0.2,0.6,0.5,0.9,0.8c0.3,0.3,0.5,0.6,0.7,0.9	c0,0,0.1,0.1,0.2,0.1s0.1,0.1,0.2,0.1c0.1,0.2,0.2,0.5,0.3,0.7c0.1,0.3,0.2,0.5,0.3,0.7c0.1,0.2,0.1,0.4,0.2,0.6	C103.3,16.5,103.3,16.7,103.2,16.8z M96.8,4.7c-1.2,0-2.5,0.1-3.7,0.3c-1.2,0.3-2.2,0.6-3.1,1.1c0.4,0.3,0.8,0.6,1.2,0.9	c0.4,0.3,0.8,0.6,1,1.1c0.9-0.4,1.8-0.9,2.5-1.5C95.5,6.1,96.2,5.4,96.8,4.7z M97.3,16.3c0.1-0.2,0.2-0.4,0.4-0.6	c0.2-0.1,0.4-0.3,0.6-0.4c0.2-0.1,0.4-0.3,0.5-0.4c0.1-0.2,0.2-0.4,0.2-0.7c-0.8-0.4-1.5-0.7-2.1-0.7c-0.6-0.1-1.2-0.1-1.8,0	c-0.6,0.1-1.1,0.2-1.6,0.4c-0.5,0.2-1,0.3-1.6,0.4c-0.3,0.7-0.5,1.5-0.8,2.3c-0.3,0.8-0.6,1.6-0.8,2.4c0.7-0.1,1.4-0.2,2-0.5	c0.6-0.2,1.2-0.4,1.8-0.7s1.1-0.5,1.7-0.7C96.1,16.7,96.7,16.5,97.3,16.3z M125.5,2.3c0,0.2,0,0.3,0,0.4c0,0.1,0,0.2,0,0.2	c0,0.1,0,0.2,0,0.2c0,0.1,0,0.2,0.1,0.4c-0.5,0.8-1.1,1.4-1.8,1.7c-0.7,0.3-1.4,0.5-2.2,0.7c-0.8,0.1-1.6,0.3-2.4,0.4	c-0.8,0.1-1.6,0.5-2.4,0.9c-0.3-0.1-0.6-0.1-0.9,0c-0.3,0.1-0.6,0.2-1.1,0.1c-0.1,0.1-0.3,0.2-0.5,0.3c-0.2,0.1-0.4,0.1-0.7,0.2	c0.1,0.2,0.1,0.4,0.1,0.7c0,0.2,0,0.4,0.1,0.6c0.8,0.1,1.8,0.1,2.8,0c1-0.1,2-0.2,3-0.2c0,0.1,0,0.2,0,0.2c0,0-0.1,0.1,0,0.2	c0.2,0.1,0.3,0.3,0.5,0.5c0.2,0.2,0.3,0.4,0.5,0.5c0.2,0.2,0.3,0.3,0.5,0.4c0.2,0.1,0.4,0.2,0.6,0.1c0.1,0.2,0.2,0.4,0.2,0.6	c0,0.2,0,0.5-0.1,0.7c-0.4,0.3-0.8,0.5-1.2,0.8c-0.4,0.3-0.8,0.5-1.2,0.7c-0.4,0.2-0.9,0.4-1.3,0.5c-0.5,0.1-1,0.2-1.6,0.2	c-0.1,0-0.2,0-0.3,0c-0.1,0-0.1,0-0.2-0.1c-0.2,0.1-0.5,0.2-0.8,0.1c-0.4,0-0.6,0-0.8,0.1c-0.3-0.1-0.6-0.2-1-0.2	c-0.4,0-0.7,0-1-0.1c-0.4,0.5-0.7,1.1-1.1,1.6c-0.3,0.6-0.6,1.2-0.8,1.8c0.8,0.1,1.5,0.2,2,0.1c0.5,0,1.1-0.1,1.5-0.1	c0.5-0.1,1-0.1,1.5-0.2c0.5-0.1,1.1-0.1,1.9-0.1c0.5-0.3,1.1-0.4,1.7-0.5c0.7-0.1,1.3-0.2,1.8-0.4c0.2,0.1,0.4,0.2,0.5,0.4	c0.1,0.2,0.3,0.4,0.4,0.5c0.1,0.2,0.3,0.3,0.4,0.4c0.1,0.1,0.3,0.2,0.5,0.1c0.1,0.1,0.2,0.2,0.2,0.3c0,0.1,0.1,0.3,0.1,0.4	c0,0.1,0.1,0.2,0.1,0.3c0.1,0.1,0.2,0.1,0.3,0.1c-0.4,0.8-0.8,1.4-1.2,1.8c-0.5,0.4-1,0.7-1.6,1c-0.6,0.2-1.3,0.4-2,0.5	c-0.7,0.1-1.6,0.3-2.4,0.4c-0.2,0-0.4,0-0.5,0c-0.1-0.1-0.3-0.1-0.5-0.1c-0.6,0.1-1.2,0.2-2,0.3c-0.8,0.1-1.6,0.1-2.4,0.1	c-0.8,0-1.6-0.1-2.3-0.3s-1.3-0.5-1.8-1c-0.2-0.2-0.3-0.4-0.4-0.6c-0.1-0.2-0.2-0.4-0.5-0.5c0-0.3-0.1-0.7-0.1-1.1	c-0.1-0.4-0.1-0.8-0.2-1.2c-0.1-0.4-0.1-0.8-0.2-1.2c0-0.4,0-0.8,0.1-1.1c0.1-0.4,0.2-0.7,0.5-1c0.2-0.3,0.3-0.6,0.2-0.9	c0.1,0,0.2-0.1,0.2-0.2c0-0.1,0.1-0.2,0.3-0.1c0.1-0.4,0.3-0.8,0.5-1.2c0.2-0.4,0.3-0.8,0.5-1.1c0.2-0.4,0.4-0.7,0.5-1.1	c0.2-0.4,0.4-0.8,0.5-1.2c-0.3-0.3-0.6-0.7-0.7-1c-0.2-0.4-0.3-0.7-0.3-1.1s-0.1-0.8-0.2-1.2c0-0.4-0.1-0.8-0.3-1.2	c0.2-0.4,0.5-0.7,0.9-0.9c0.3-0.2,0.7-0.4,1.1-0.6c0.4-0.1,0.9-0.3,1.3-0.4c0.5-0.1,1-0.2,1.5-0.3c1-0.3,1.8-0.6,2.6-0.7	c0.8-0.2,1.5-0.3,2.2-0.4c0.7-0.1,1.5-0.2,2.3-0.3s1.7-0.2,2.7-0.4c0.2,0.2,0.4,0.3,0.6,0.3c0.1-0.2,0.2-0.3,0.3-0.2	c0.1,0.1,0.2,0,0.2-0.2c0.2,0.4,0.5,0.8,0.9,1C124.6,1.9,125,2.1,125.5,2.3z M131.6,18.9c-0.3,1-0.5,1.7-0.7,2.2	c-0.2,0.5-0.5,1-0.9,1.5c-0.3,0-0.5,0-0.7,0.1c-0.1,0.1-0.3,0.2-0.4,0.3c-0.2,0-0.4,0-0.5,0c-0.1,0-0.2-0.1-0.3-0.2	c-0.1-0.1-0.2-0.1-0.3-0.2c-0.1-0.1-0.3-0.1-0.5-0.1c0-0.2-0.1-0.4-0.2-0.5c-0.1-0.2-0.2-0.2-0.5-0.2c0-0.2,0.1-0.4,0-0.5	c0-0.1-0.1-0.3-0.1-0.4c0-0.1-0.1-0.2-0.1-0.3c0-0.1,0-0.2,0-0.4c-0.1,0-0.2-0.1-0.3-0.3c-0.1-0.2-0.2-0.3-0.3-0.5	c0.1-0.4,0.1-0.8,0.2-1.2c0.1-0.4,0.2-0.7,0.3-1.1s0.2-0.7,0.3-1c0.1-0.3,0-0.7-0.1-1.1c0.1,0.1,0.2,0.1,0.2-0.1	c0-0.1,0.1-0.3,0.1-0.4c0-0.2,0-0.4,0-0.5s0-0.3,0-0.5c0.2-0.6,0.4-1.3,0.6-1.9s0.3-1.3,0.4-2c0.1-0.7,0.3-1.3,0.4-1.9	c0.1-0.6,0.3-1.2,0.6-1.7c0.3,0,0.6,0,0.9,0.1c0.3,0.1,0.5,0.2,0.6,0.4c0.6-0.5,1.2-1.1,1.7-1.8c0.5-0.7,1-1.4,1.5-2	c0.5-0.7,1.1-1.2,1.7-1.7c0.6-0.5,1.4-0.8,2.3-0.9c0.5,0.4,1,0.7,1.6,1.1c0.6,0.4,1.1,0.9,1.5,1.5c0.2,0.1,0.4,0.2,0.5,0.3	c0.1,0.1,0.3,0.2,0.5,0.3v0.4c0.3,0.3,0.5,0.6,0.7,0.9c0.2,0.4,0.3,0.7,0.5,1.1c0.1,0.4,0.3,0.8,0.4,1.2c0.1,0.4,0.3,0.8,0.5,1.1	c0,0.1-0.1,0.2-0.1,0.3c0,0.1,0,0.2,0.1,0.3c0,0.1,0.1,0.2,0.1,0.3c0,0.1,0,0.2,0,0.4c-0.1,1.1-0.4,1.9-1,2.6	c-0.6,0.7-1.4,1.2-2.2,1.6c-0.9,0.4-1.8,0.8-2.8,1.1c-1,0.3-1.9,0.6-2.7,0.9c0,0.1,0,0.1,0.1,0.1c0.1,0,0.1,0.1,0.1,0.2	c0.6,0.4,1,0.7,1.4,0.9c0.3,0.2,0.7,0.4,1,0.5c0.3,0.1,0.6,0.3,1,0.4c0.3,0.1,0.8,0.2,1.5,0.4c0.6,0.1,1.1,0.3,1.5,0.3	c0.3,0.1,0.7,0.2,1,0.2c0.3,0.1,0.6,0.1,0.9,0.1c0.3,0,0.7,0.1,1.3,0.1c0.2,0.2,0.4,0.5,0.6,0.8c0.2,0.3,0.3,0.6,0.3,0.9	c0,0.3,0.1,0.6,0,0.9c0,0.3-0.1,0.5-0.3,0.7c0,0.1,0.1,0.1,0.2,0.1c0.1,0,0.2,0,0.3,0c-0.1,0.1-0.3,0.2-0.4,0.4	c-0.1,0.1-0.2,0.3-0.3,0.4c-0.1,0.1-0.2,0.3-0.3,0.4c-0.1,0.1-0.3,0.2-0.5,0.2c-0.7,0.3-1.7,0.3-2.8,0.1c-1.1-0.3-2.6-0.7-4.3-1.4	c-0.9-0.3-1.6-0.6-2.1-0.9s-1-0.5-1.4-0.8c-0.4-0.3-0.8-0.5-1.1-0.8C132.4,19.7,132,19.4,131.6,18.9z M136.7,6.5	c-0.3,0.4-0.6,0.7-0.9,1.1c-0.3,0.3-0.6,0.6-0.9,1c-0.3,0.3-0.6,0.7-0.8,1.1c-0.2,0.4-0.4,0.9-0.5,1.4c0.8-0.1,1.7-0.3,2.6-0.7	c0.9-0.4,1.8-0.7,2.6-1.1c-0.1-0.7-0.4-1.4-0.8-1.8C137.6,7,137.2,6.7,136.7,6.5z M147.1,6.4c0.2-0.5,0.4-0.9,0.8-1.3	c0.4-0.4,0.8-0.7,1.2-0.9c0.4-0.3,0.9-0.5,1.4-0.6c0.5-0.2,0.9-0.3,1.4-0.4c1-0.4,2-0.8,3.1-1.2c1.1-0.4,2.2-0.7,3.4-1	c1.1-0.3,2.3-0.5,3.5-0.6c1.2-0.1,2.5,0.1,3.8,0.5c0.1,0.2,0.2,0.5,0.3,0.7c0.1,0.2,0.3,0.4,0.5,0.7c0.2,0.2,0.3,0.4,0.4,0.6	c0.1,0.2,0.2,0.4,0.2,0.6c0.2,0.2,0.4,0.5,0.6,0.7c0.1,0.3,0.2,0.6,0.1,1c-0.2,0.2-0.5,0.4-0.7,0.5c-0.2,0.2-0.5,0.3-0.7,0.4	c-0.9-0.2-1.8-0.3-2.7-0.2c-0.9,0.1-1.7,0.1-2.5,0.2c-0.2-0.2-0.5-0.3-0.8-0.3c-0.3,0-0.6,0-0.9,0.1c-0.3,0.1-0.7,0.2-1,0.3	c-0.3,0.1-0.6,0.1-0.9,0.1c-0.2,0.2-0.5,0.3-0.9,0.4c-0.4,0.1-0.7,0.1-1.1,0.2c0,0.1,0,0.2,0.1,0.2c0.1,0,0.1,0.1,0,0.2	c0.1,0.2,0.3,0.3,0.6,0.4c0.2,0.1,0.5,0.1,0.7,0.2s0.5,0.2,0.7,0.3c0.2,0.1,0.3,0.3,0.4,0.5c0.4,0,0.7,0.1,0.9,0.3	c0.3,0.2,0.5,0.4,0.7,0.6c0.2,0.2,0.3,0.5,0.4,0.8c0.1,0.3,0.1,0.5,0.1,0.7c0.1,0.2,0.2,0.3,0.3,0.3c0.1,0,0.2,0,0.3,0.1	c0.1,0.3,0.3,0.6,0.5,1c0.3,0.3,0.5,0.7,0.7,1.1c0,0.6,0.1,1.1,0.1,1.6c0,0.5-0.1,0.9-0.3,1.4c-0.4,0.9-0.9,1.7-1.5,2.4	c-0.6,0.7-1.4,1.3-2.2,1.9c-0.8,0.5-1.7,1-2.6,1.4c-0.9,0.4-1.8,0.7-2.7,1c-0.1,0-0.2,0-0.3,0c-0.1,0-0.1,0-0.1-0.2	c-0.2,0.2-0.4,0.3-0.6,0.3c-0.2,0-0.5,0.1-0.7,0.1c-0.3,0-0.5,0-0.8-0.1c-0.3,0-0.5,0-0.8,0c-0.2-0.2-0.3-0.3-0.5-0.5	c-0.1-0.2-0.2-0.4-0.3-0.6c-0.1,0-0.2-0.1-0.2-0.2c0-0.1,0-0.2-0.1-0.2c0.1-0.2,0.2-0.4,0.2-0.4c0,0,0-0.1-0.1-0.1	c-0.1,0-0.1-0.1-0.2-0.1c0,0-0.1-0.1,0-0.2c0.1-0.2,0.1-0.4,0.1-0.7c0-0.3,0-0.5-0.1-0.8c0-0.3,0-0.5,0.1-0.8	c0.1-0.2,0.2-0.4,0.5-0.6c0.8,0.1,1.6,0.1,2.3-0.1c0.7-0.2,1.4-0.4,2.1-0.7c0.7-0.3,1.3-0.6,1.9-0.9c0.6-0.3,1.2-0.6,1.8-0.9	c0.1-0.2,0.2-0.4,0.3-0.5c0.1-0.1,0.3-0.3,0.4-0.4c0.1-0.1,0.3-0.3,0.4-0.4c0.1-0.1,0.2-0.3,0.3-0.5c0-0.2,0-0.3-0.1-0.3	c-0.1,0-0.2-0.1-0.2-0.3l-0.4-0.1c-0.5-0.3-1-0.5-1.6-0.7c-0.6-0.2-1.1-0.4-1.5-0.6c-0.3,0.1-0.5,0.2-0.7,0.1	c-0.2-0.1-0.5-0.1-0.9-0.2c-0.8,0-1.6-0.1-2.4-0.3c-0.8-0.1-1.5-0.3-2.2-0.7c0-0.1-0.1-0.2-0.2-0.3c-0.1-0.1-0.2-0.1-0.4-0.1	c-0.1-0.2-0.3-0.4-0.4-0.6c-0.1-0.2-0.3-0.4-0.4-0.6c0-0.3,0.1-0.5,0.1-0.7c0-0.2,0-0.4-0.2-0.6c0.1-0.3,0.2-0.6,0.2-0.8	C147.2,7,147.2,6.7,147.1,6.4z M185.3,19.2c0,0.6,0,1.1-0.2,1.6c-0.2,0.4-0.5,0.8-0.8,1.1c-0.3,0.3-0.7,0.5-1.2,0.7	c-0.4,0.2-0.9,0.3-1.3,0.5c-0.2-0.1-0.4-0.2-0.6-0.4c-0.2-0.1-0.4-0.2-0.6-0.3c-0.3-0.6-0.6-1.1-0.9-1.5c-0.3-0.4-0.4-1-0.4-1.5	c0,0,0-0.2,0.1-0.4c0-0.2,0.1-0.5,0.1-0.8c0.1-0.3,0.1-0.6,0.1-0.8c0-0.3,0.1-0.4,0.1-0.4c-0.6,0-1.1,0.2-1.7,0.4	c-0.6,0.2-1.2,0.4-1.8,0.7c-0.6,0.3-1.1,0.5-1.6,0.8c-0.5,0.3-0.9,0.5-1.2,0.7c0,0.1,0,0.2-0.1,0.5c-0.1,0.3-0.2,0.6-0.4,0.9	c-0.1,0.3-0.3,0.6-0.5,0.8c-0.2,0.2-0.3,0.4-0.5,0.4c0,0.1,0.1,0.1,0.1,0.2c0,0.1,0,0.2,0,0.3c-0.3,0.1-0.6,0.2-0.9,0.4	c-0.3,0.2-0.5,0.3-0.8,0.4c-0.3,0.1-0.6,0.2-0.9,0.2c-0.3,0-0.7-0.1-1.2-0.4c0-0.1-0.1-0.3-0.2-0.4c-0.1-0.1-0.2-0.2-0.4-0.3	c-0.1-0.1-0.2-0.2-0.3-0.2c-0.1-0.1-0.1-0.1-0.1-0.2c-0.1,0-0.2-0.1-0.1-0.3c0-0.2,0.1-0.2,0.3-0.1c-0.3-0.3-0.4-0.6-0.5-0.9	c-0.1-0.3-0.2-0.6-0.4-1c0,0,0.1-0.1,0.1-0.3c0-0.1,0.1-0.2,0.1-0.3c0-0.1,0.1-0.2,0.1-0.2c0,0,0.1,0,0.2,0c0-0.2,0-0.4,0-0.5	s0.1-0.3,0.1-0.4c0-0.1,0.1-0.2,0.1-0.4c0-0.1,0-0.3-0.1-0.4c0.4-0.5,0.6-1.1,0.8-1.7c0.1-0.6,0.2-1.2,0.2-1.7	c0.2-0.2,0.3-0.4,0.5-0.7c0.1-0.3,0.2-0.6,0.3-1c0.1-0.3,0.1-0.6,0.1-0.9c0-0.3-0.1-0.5-0.1-0.7c0-0.1,0.2-0.2,0.4-0.1	c0.1-0.8,0.2-1.7,0.3-2.7c0.1-1,0.2-2,0.3-2.9c0.1-0.9,0.4-1.7,0.7-2.4c0.3-0.7,0.9-1.1,1.6-1.4c0.1,0.5,0.3,1,0.6,1.3	c0.2,0.4,0.5,0.8,0.8,1.1c0.3,0.4,0.6,0.7,0.8,1.1c0.3,0.4,0.5,0.8,0.8,1.2c0,0.5-0.1,1-0.1,1.6s-0.2,1.2-0.3,1.8	c-0.1,0.6-0.2,1.2-0.3,1.8c-0.1,0.6-0.2,1.1-0.3,1.5c0,0.1,0.1,0.2,0.2,0.2c0.1,0,0.1,0.1,0.1,0.3c0.6-0.1,1.2-0.3,1.8-0.4	c0.6-0.1,1.3-0.3,1.9-0.4c0.6-0.1,1.2-0.3,1.8-0.5s1.1-0.4,1.6-0.7c0.1-0.9,0.3-1.9,0.5-2.8c0.2-0.9,0.2-1.9,0.1-2.9	c0.1-0.1,0.2-0.2,0.3-0.4c0.1-0.1,0.2-0.2,0.4-0.3c-0.1-0.5-0.2-0.9-0.1-1.4c0-0.5,0.1-1,0.3-1.4c0.2-0.5,0.4-0.9,0.7-1.2	c0.3-0.3,0.7-0.5,1.1-0.6c0.3,0.4,0.5,0.8,0.7,1.2c0.2,0.4,0.4,0.9,0.6,1.3c0.2,0.4,0.4,0.9,0.7,1.3c0.2,0.4,0.5,0.7,0.9,1	c0.1,0.7,0.1,1.4,0.2,2.2c0,0.7,0.1,1.5,0.1,2.3c-0.2,0.9-0.4,1.8-0.6,2.7c-0.2,0.9-0.4,1.8-0.5,2.7c-0.2,0.2-0.3,0.4-0.4,0.7	c-0.1,0.2-0.2,0.5-0.3,0.7c-0.1,0.3-0.2,0.5-0.3,0.7c-0.1,0.2-0.3,0.4-0.4,0.6c0.1,0.3,0.1,0.6,0.1,0.8	C185,18.5,185.1,18.8,185.3,19.2z M196,20.2c0.1,0.7,0.1,1.3-0.1,1.7c-0.2,0.4-0.5,0.7-0.9,0.9c-0.4,0.2-0.8,0.3-1.3,0.3	c-0.5,0-0.9,0-1.4-0.1c-0.2-0.3-0.5-0.8-0.7-1.3c-0.2-0.5-0.4-1-0.5-1.6c-0.2-0.5-0.3-1.1-0.5-1.6c-0.1-0.5-0.2-1-0.3-1.4	c0.1-0.3,0.2-0.6,0.2-1c0-0.4,0.1-0.8,0.1-1.1c0-0.4,0-0.8,0-1.2c0-0.4,0-0.8,0.1-1.1c0.2-1,0.4-2,0.7-2.9c0.3-0.9,0.6-1.9,0.8-2.9	c0-0.2,0-0.4-0.1-0.6c-0.1-0.2-0.1-0.4-0.1-0.5c0-0.1,0.1-0.2,0.2-0.2c0.1,0,0.2-0.1,0.2-0.2c0.1-0.3,0.1-0.5,0.1-0.7	c0-0.2,0-0.4,0.1-0.6c0.1-0.2,0.3-0.5,0.5-0.9c0.2-0.4,0.2-0.8,0.2-1.2c0.2-0.1,0.4-0.3,0.6-0.5s0.4-0.4,0.6-0.5	c0.2-0.2,0.4-0.3,0.7-0.4c0.3-0.1,0.6-0.2,0.9-0.2c0.2,0.2,0.3,0.5,0.4,0.8c0.1,0.3,0.1,0.6,0.2,0.9c0.1,0.3,0.2,0.6,0.3,0.8	c0.1,0.3,0.3,0.5,0.6,0.6c0,0.2,0,0.4,0,0.7c0,0.3,0,0.6,0,0.9c0,0.3,0.1,0.5,0.2,0.8c0.1,0.2,0.2,0.4,0.4,0.5	c-0.4,1.2-0.8,2.3-1.2,3.4c-0.4,1.1-0.7,2.3-0.9,3.4c-0.2,1.1-0.4,2.3-0.5,3.5C195.7,17.8,195.8,19,196,20.2z M213.1,0.3	c1,0.1,1.9,0.3,2.7,0.6s1.5,0.7,2,1.2c0.4,0.6,0.8,1.3,1.1,2s0.6,1.4,0.8,2.2s0.3,1.5,0.3,2.3c0,0.8-0.2,1.6-0.5,2.4	c-0.7,0.9-1.6,1.6-2.6,2.1c-1,0.5-2.1,1-3.2,1.3c-1.2,0.3-2.4,0.6-3.6,0.9c-1.2,0.2-2.5,0.5-3.6,0.7c0,0.6,0,1.1,0,1.8	c0,0.6-0.1,1.2-0.2,1.8c-0.1,0.6-0.3,1.2-0.5,1.8c-0.2,0.6-0.5,1.1-0.9,1.6c-0.4,0-0.8,0.1-1.3,0.2c-0.4,0.1-0.8,0.2-1.2,0.3	c-0.2-0.1-0.3-0.2-0.5-0.3c-0.1-0.1-0.3-0.1-0.6-0.2c0-0.2,0-0.5-0.2-0.7c-0.2-0.3-0.3-0.5-0.5-0.8c-0.2-0.3-0.3-0.5-0.3-0.8	c-0.1-0.2,0.1-0.5,0.3-0.7c-0.2-0.2-0.3-0.4-0.3-0.7c0.2-0.3,0.3-0.7,0.5-1.2c0.1-0.5,0.2-1,0.3-1.5c0.1-0.5,0.1-0.9,0.1-1.4	c0-0.4-0.3-0.7-0.7-0.9c0,0,0.1-0.1,0.1-0.1c0.1,0,0.1,0,0.2,0c-0.2-0.1-0.3-0.3-0.3-0.6c0-0.3-0.1-0.5-0.3-0.7	c0-0.1,0.1-0.2,0.1-0.3c0-0.1,0.1-0.1,0.3-0.1c-0.1-0.4-0.1-0.8,0-1.2c0.1-0.4,0.2-0.8,0.4-1.1c0.2-0.3,0.4-0.7,0.6-1	c0.2-0.3,0.5-0.7,0.7-1c0.2,0,0.3,0,0.3,0.1c0,0.1,0.1,0.1,0.2,0c0.3-0.2,0.5-0.5,0.7-0.8c0.1-0.3,0.2-0.6,0.2-0.9	c0.2-0.5,0.4-1,0.6-1.5c0.2-0.5,0.5-1,0.8-1.4c0.3-0.4,0.6-0.8,1-1.2c0.4-0.3,0.7-0.6,1.1-0.8c0.3-0.2,0.7-0.5,1.1-0.7	c0.4-0.2,0.9-0.4,1.4-0.5c0.5-0.1,1-0.2,1.5-0.2c0.5,0,1,0,1.4,0.2c0.1,0,0.2,0,0.2-0.1C213,0.3,213,0.3,213.1,0.3z M211.6,8.9	c0.6-0.3,1.3-0.5,1.9-0.6c0.7-0.2,1.3-0.5,1.7-0.9c-0.3-0.3-0.7-0.5-1.3-0.7c-0.6-0.2-1.2-0.3-1.8-0.4c-0.7,0-1.3,0-2,0.2	c-0.7,0.2-1.2,0.5-1.7,0.9c-0.1,0.4-0.3,0.8-0.4,1c-0.1,0.3-0.2,0.6-0.4,0.9c0,0.1,0.1,0.2,0.2,0.3c0.1,0.1,0.2,0.2,0.2,0.3	c0.6-0.3,1.1-0.5,1.7-0.5C210.5,9.3,211,9.2,211.6,8.9z"></path></svg>