<svg version="1.1" id="icon_search_header" xmlns="https://www.w3.org/2000/svg" xmlns:xlink="https://www.w3.org/1999/xlink" x="0px" y="0px" width="16px" height="16px" viewBox="0 0 16 16" enable-background="new 0 0 16 16" xml:space="preserve"><path d="M16,14.912l-4.799-4.799c0.831-1.062,1.331-2.396,1.331-3.847C12.532,2.811,9.721,0,6.266,0C2.811,0,0,2.812,0,6.266c0,3.456,2.811,6.266,6.266,6.266c1.451,0,2.785-0.5,3.848-1.331L14.912,16L16,14.912z M6.266,10.994c-2.607,0-4.728-2.121-4.728-4.728c0-2.607,2.121-4.728,4.728-4.728s4.728,2.121,4.728,4.728C10.994,8.874,8.873,10.994,6.266,10.994z"></path></svg>