<svg version="1.1" id="shuffle_icon_header" xmlns="https://www.w3.org/2000/svg" xmlns:xlink="https://www.w3.org/1999/xlink" x="0px" y="0px" width="20px" height="16px" viewBox="0 0 20 16" enable-background="new 0 0 20 16" xml:space="preserve"><path d="M16,10l4,3l-4,3v-2.25h-2c-1.341,0-2.992-0.86-3.762-1.958l-0.67-0.958l0.915-1.308l0.984,1.406c0.491,0.702,1.675,1.319,2.532,1.319h2V10z M5.532,5.069l0.984,1.405l0.915-1.308l-0.67-0.958C5.992,3.11,4.341,2.25,3,2.25H0v1.5h3C3.857,3.75,5.041,4.366,5.532,5.069z M14,3.75h2V6l4-3l-4-3v2.25h-2c-1.341,0-2.992,0.86-3.762,1.958l-4.706,6.722C5.041,11.634,3.857,12.25,3,12.25H0v1.5h3c1.341,0,2.992-0.86,3.762-1.958l4.706-6.722C11.959,4.366,13.143,3.75,14,3.75z"></path></svg>