<svg version="1.1" id="logo_2020_header" xmlns="http://www.w3.org/2000/svg" xmlns:xlink="http://www.w3.org/1999/xlink" x="0px" y="0px" viewBox="0 0 320 60" style="enable-background:new 0 0 320 60;" xml:space="preserve"><path class="st0" d="M30,10V0l10,10v10H20v20H10V10H30z M30,50H0l10,10h30V50L30,40V50z M80,10L70,0v50H40l10,10h30V50V10z M110,50H80l10,10h30  V50l-10-10V50z M260,10h-10v10h10V10z M290,40h10V10L290,0V40z M180,40V30h-20l10,10H180z M140,10h-10v30h10V10z M90,40h10V10L90,0 V40z M60,10H50v30h10V10z M310,40v10h-30l10,10h30V50L310,40z M260,30h-10v20h-10l10,10h10V30z M220,40V30h-20l10,10H220z M240,10 L230,0v10h-20v10h30V10z M200,30l-10-10v30h-30l10,10h30V30z M160,10L150,0v50h-30l10,10h30V10z M200,10L190,0v10h-20v10h30V10z  M240,30l-10-10v30h-30l10,10h30V30z M280,10L270,0v50h-10l10,10h10V10z"></path></svg>